HIERARCHY
ROOT root
{
	OFFSET 0.00 0.00 0.00
	CHANNELS 6 Xposition Yposition Zposition Zrotation Xrotation Yrotation
	JOINT lowerback
	{
		OFFSET 0 0 0
		CHANNELS 6 Xposition Yposition Zposition Zrotation Xrotation Yrotation
		JOINT upperback
		{
			OFFSET -0.214371 12.3768 -1.12219
			CHANNELS 6 Xposition Yposition Zposition Zrotation Xrotation Yrotation
			JOINT thorax
			{
				OFFSET -0.00137213 12.3873 0.296195
				CHANNELS 6 Xposition Yposition Zposition Zrotation Xrotation Yrotation
				JOINT lowerneck
				{
					OFFSET 0.0883157 12.5016 0.82912
					CHANNELS 6 Xposition Yposition Zposition Zrotation Xrotation Yrotation
					JOINT upperneck
					{
						OFFSET -1 10.1794 0.943522
						CHANNELS 6 Xposition Yposition Zposition Zrotation Xrotation Yrotation
						JOINT head
						{
							OFFSET 0.667525 10.2797 -1.57149
							CHANNELS 6 Xposition Yposition Zposition Zrotation Xrotation Yrotation
							End Site
							{
								OFFSET 0 0 0
							}
						}
					}
				}
				JOINT lclavicle
				{
					OFFSET 0.0883157 12.5016 0.82912
					CHANNELS 6 Xposition Yposition Zposition Zrotation Xrotation Yrotation
					JOINT lhumerus
					{
						OFFSET 20.61 4.45006 1.43784
						CHANNELS 6 Xposition Yposition Zposition Zrotation Xrotation Yrotation
						JOINT lradius
						{
							OFFSET 0 -30.3438 0
							CHANNELS 6 Xposition Yposition Zposition Zrotation Xrotation Yrotation
							JOINT lwrist
							{
								OFFSET 0 -18.964 0
								CHANNELS 6 Xposition Yposition Zposition Zrotation Xrotation Yrotation
								JOINT lhand
								{
									OFFSET 0 -9.48199 0
									CHANNELS 6 Xposition Yposition Zposition Zrotation Xrotation Yrotation
									JOINT lfingers
									{
										OFFSET 0 -3.17138 0
										CHANNELS 6 Xposition Yposition Zposition Zrotation Xrotation Yrotation
										End Site
										{
											OFFSET 0 -2.55685 0
										}
									}
								}
								JOINT lthumb
								{
									OFFSET 0 -9.48199 0
									CHANNELS 6 Xposition Yposition Zposition Zrotation Xrotation Yrotation
									End Site
									{
										OFFSET 0 -3.67114 0
									}
								}
							}
						}
					}
				}
				JOINT rclavicle
				{
					OFFSET 0.0883157 12.5016 0.82912
					CHANNELS 6 Xposition Yposition Zposition Zrotation Xrotation Yrotation
					JOINT rhumerus
					{
						OFFSET -20.61 4.45 1.44
						CHANNELS 6 Xposition Yposition Zposition Zrotation Xrotation Yrotation
						JOINT rradius
						{
							OFFSET 0 -29.5102 0
							CHANNELS 6 Xposition Yposition Zposition Zrotation Xrotation Yrotation
							JOINT rwrist
							{
								OFFSET 0 -19.2342 0
								CHANNELS 6 Xposition Yposition Zposition Zrotation Xrotation Yrotation
								JOINT rhand
								{
									OFFSET 0 -9.61712 0
									CHANNELS 6 Xposition Yposition Zposition Zrotation Xrotation Yrotation
									JOINT rfingers
									{
										OFFSET 0 -3.29215 0
										CHANNELS 6 Xposition Yposition Zposition Zrotation Xrotation Yrotation
										End Site
										{
											OFFSET 0 -2.557 0
										}
									}
								}
								JOINT rthumb
								{
									OFFSET 0 -9.61712 0
									CHANNELS 6 Xposition Yposition Zposition Zrotation Xrotation Yrotation
									End Site
									{
										OFFSET 0 -3.671 0
									}
								}
							}
						}
					}
				}
			}
		}
	}
	JOINT rfemur
	{
		OFFSET -8.46272 -9.62775 4.76248
		CHANNELS 6 Xposition Yposition Zposition Zrotation Xrotation Yrotation
		JOINT rtibia
		{
			OFFSET 1.00552e-005 -38.0331 0
			CHANNELS 6 Xposition Yposition Zposition Zrotation Xrotation Yrotation
			JOINT rfoot
			{
				OFFSET 1.14428e-005 -43.2815 0
				CHANNELS 6 Xposition Yposition Zposition Zrotation Xrotation Yrotation
				JOINT rtoes
				{
					OFFSET 0 -14.1868 -3.08763
					CHANNELS 6 Xposition Yposition Zposition Zrotation Xrotation Yrotation
					End Site
					{
						OFFSET 0 -7.27332 0
					}
				}
			}
		}
	}
	JOINT lfemur
	{
		OFFSET 9.10607 -9.62778 4.76249
		CHANNELS 6 Xposition Yposition Zposition Zrotation Xrotation Yrotation
		JOINT ltibia
		{
			OFFSET -1.01399e-005 -38.3535 0
			CHANNELS 6 Xposition Yposition Zposition Zrotation Xrotation Yrotation
			JOINT lfoot
			{
				OFFSET -1.12937e-005 -42.7176 0
				CHANNELS 6 Xposition Yposition Zposition Zrotation Xrotation Yrotation
				JOINT ltoes
				{
					OFFSET 0 -13.9965 -2.83857
					CHANNELS 6 Xposition Yposition Zposition Zrotation Xrotation Yrotation
					End Site
					{
						OFFSET 0 -7.16348 0
					}
				}
			}
		}
	}
}
MOTION
Frames: 9
Frame Time: 0.00833333
0.0894216	97.9359	8.19957	-4.73415	5.02216	1.2577	0 0 0 1.27154	-4.35572	0.0162876	-0.214371 12.3768 -1.12219 3.66272	-1.67885	-0.0656618	-0.00137213 12.3873 0.296195 3.05221	0.720044	-0.0265926	0.0883157 12.5016 0.82912 -4.09013	-11.4168	-4.74077	-1 10.1794 0.943522 2.04674	15.0321	-5.93764	0.667525 10.2797 -1.57149 2.61093	1.87521	-1.99341	0.0883157 12.5016 0.82912 -15	0	-0	20.61 4.45006 1.43784 16.951	2.56596	164.681	0 -30.3438 0 -0	15.0675	-0	0 -18.964 0 1.18429e-014	-5.09336e-015	-136.543	0 -9.48199 0 1.22245	4.37968	-2.58917e-014	0 -3.17138 0 -0	7.12502	-0	0 -9.48199 0 25	15	-1.36605e-015	0.0883157 12.5016 0.82912 15	0	-0	-20.61 4.45 1.44 -20.3893	2.72859	-168.523	0 -29.5102 0 -0	29.2838	-0	0 -19.2342 0 2.96229e-016	-2.01726e-015	106.708	0 -9.61712 0 1.22	4.38	-0	0 -3.29215 0 -0	7.12502	-0	0 -9.61712 0 25	15	-7.97034e-015	-8.46272 -9.62775 4.76248 10.7067	-8.40345	-1.12374	1.00552e-005 -38.0331 0 -0	22.0479	-0	1.14428e-005 -43.2815 0 -5.80395e-015	-77.1002	-6.09068e-015	0 -14.1868 -3.08763 -0	-22.3725	-0	9.10607 -9.62778 4.76249 8.39924	-31.9411	13.0204	-1.01399e-005 -38.3535 0 -0	63.9982	-0	-1.12937e-005 -42.7176 0 5.92308e-016	-68.7041	6.39847e-016	0 -13.9965 -2.83857 -0	-31.9637	-0
0.104993	97.8655	9.20983	-4.85406	5.09645	0.993732	0 0 0 1.49858	-4.31547	0.149329	-0.214371 12.3768 -1.12219 3.6432	-1.64981	0.102745	-0.00137213 12.3873 0.296195 2.91206	0.717853	0.05731	0.0883157 12.5016 0.82912 -4.1272	-11.447	-4.73764	-1 10.1794 0.943522 2.04577	14.873	-5.90116	0.667525 10.2797 -1.57149 2.62133	1.81552	-1.97757	0.0883157 12.5016 0.82912 -15	0	-0	20.61 4.45006 1.43784 17.2662	3.49852	165.286	0 -30.3438 0 -0	14.0396	-0	0 -18.964 0 1.15916e-014	-5.32017e-015	-139.307	0 -9.48199 0 1.22245	4.37968	-2.58917e-014	0 -3.17138 0 -0	7.12502	-0	0 -9.48199 0 25	15	-1.36605e-015	0.0883157 12.5016 0.82912 15	0	-0	-20.61 4.45 1.44 -20.7099	2.02814	-167.135	0 -29.5102 0 -0	30.347	-0	0 -19.2342 0 2.70467e-016	-1.92936e-015	105.96	0 -9.61712 0 1.22	4.38	-0	0 -3.29215 0 -0	7.12502	-0	0 -9.61712 0 25	15	-7.97034e-015	-8.46272 -9.62775 4.76248 10.8764	-7.68635	-1.18427	1.00552e-005 -38.0331 0 -0	21.8416	-0	1.14428e-005 -43.2815 0 -5.93199e-015	-77.3637	-6.21556e-015	0 -14.1868 -3.08763 -0	-22.3079	-0	9.10607 -9.62778 4.76249 8.51853	-33.0824	13.2399	-1.01399e-005 -38.3535 0 -0	62.34	-0	-1.12937e-005 -42.7176 0 6.4551e-016	-70.3095	6.89687e-016	0 -13.9965 -2.83857 -0	-33.0259	-0
0.122085	97.801	10.2271	-4.9789	5.17806	0.745331	0 0 0 1.71885	-4.28567	0.26527	-0.214371 12.3768 -1.12219 3.63322	-1.61308	0.247713	-0.00137213 12.3873 0.296195 2.78472	0.732082	0.129409	0.0883157 12.5016 0.82912 -4.17634	-11.4625	-4.72396	-1 10.1794 0.943522 2.04719	14.675	-5.8441	0.667525 10.2797 -1.57149 2.63921	1.73553	-1.9534	0.0883157 12.5016 0.82912 -15	0	-0	20.61 4.45006 1.43784 17.5977	4.46327	165.889	0 -30.3438 0 -0	13.1151	-0	0 -18.964 0 1.13386e-014	-5.52773e-015	-141.98	0 -9.48199 0 1.22245	4.37968	-2.58917e-014	0 -3.17138 0 -0	7.12502	-0	0 -9.48199 0 25	15	-1.36605e-015	0.0883157 12.5016 0.82912 15	0	-0	-20.61 4.45 1.44 -21.0457	1.3112	-165.844	0 -29.5102 0 -0	31.4493	-0	0 -19.2342 0 2.47045e-016	-1.8455e-015	105.249	0 -9.61712 0 1.22	4.38	-0	0 -3.29215 0 -0	7.12502	-0	0 -9.61712 0 25	15	-7.97034e-015	-8.46272 -9.62775 4.76248 11.0312	-6.94873	-1.27244	1.00552e-005 -38.0331 0 -0	21.5839	-0	1.14428e-005 -43.2815 0 -6.02824e-015	-77.5549	-6.30951e-015	0 -14.1868 -3.08763 -0	-22.5675	-0	9.10607 -9.62778 4.76249 8.61997	-34.1076	13.4183	-1.01399e-005 -38.3535 0 -0	60.3792	-0	-1.12937e-005 -42.7176 0 6.96572e-016	-71.6454	7.37964e-016	0 -13.9965 -2.83857 -0	-33.81	-0
0.140126	97.7473	11.2574	-5.10457	5.26928	0.507075	0 0 0 1.93034	-4.27051	0.367986	-0.214371 12.3768 -1.12219 3.6299	-1.57105	0.374442	-0.00137213 12.3873 0.296195 2.66867	0.762242	0.192341	0.0883157 12.5016 0.82912 -4.23749	-11.4613	-4.70269	-1 10.1794 0.943522 2.05427	14.4428	-5.77232	0.667525 10.2797 -1.57149 2.66434	1.63776	-1.92331	0.0883157 12.5016 0.82912 -15	0	-0	20.61 4.45006 1.43784 17.9442	5.46213	166.471	0 -30.3438 0 -0	12.2938	-0	0 -18.964 0 1.10936e-014	-5.71078e-015	-144.477	0 -9.48199 0 1.22245	4.37968	-2.58917e-014	0 -3.17138 0 -0	7.12502	-0	0 -9.48199 0 25	15	-1.36605e-015	0.0883157 12.5016 0.82912 15	0	-0	-20.61 4.45 1.44 -21.3931	0.588047	-164.649	0 -29.5102 0 -0	32.5858	-0	0 -19.2342 0 2.25373e-016	-1.76407e-015	104.561	0 -9.61712 0 1.22	4.38	-0	0 -3.29215 0 -0	7.12502	-0	0 -9.61712 0 25	15	-7.97034e-015	-8.46272 -9.62775 4.76248 11.1652	-6.18849	-1.38739	1.00552e-005 -38.0331 0 -0	21.2644	-0	1.14428e-005 -43.2815 0 -6.08489e-015	-77.6648	-6.36484e-015	0 -14.1868 -3.08763 -0	-23.1482	-0	9.10607 -9.62778 4.76249 8.6989	-35.0122	13.5446	-1.01399e-005 -38.3535 0 -0	58.1134	-0	-1.12937e-005 -42.7176 0 7.39631e-016	-72.6428	7.78951e-016	0 -13.9965 -2.83857 -0	-34.2983	-0
0.15695	97.709	12.3066	-5.22796	5.37206	0.273489	0 0 0 2.13232	-4.27297	0.461903	-0.214371 12.3768 -1.12219 3.63031	-1.52655	0.488858	-0.00137213 12.3873 0.296195 2.56165	0.806712	0.249104	0.0883157 12.5016 0.82912 -4.30944	-11.442	-4.67716	-1 10.1794 0.943522 2.06927	14.1826	-5.69234	0.667525 10.2797 -1.57149 2.69581	1.52555	-1.89	0.0883157 12.5016 0.82912 -15	0	-0	20.61 4.45006 1.43784 18.3045	6.49536	167.014	0 -30.3438 0 -0	11.5736	-0	0 -18.964 0 1.08676e-014	-5.86556e-015	-146.714	0 -9.48199 0 1.22245	4.37968	-2.58917e-014	0 -3.17138 0 -0	7.12502	-0	0 -9.48199 0 25	15	-1.36605e-015	0.0883157 12.5016 0.82912 15	0	-0	-20.61 4.45 1.44 -21.748	-0.130978	-163.553	0 -29.5102 0 -0	33.7496	-0	0 -19.2342 0 2.04974e-016	-1.68359e-015	103.883	0 -9.61712 0 1.22	4.38	-0	0 -3.29215 0 -0	7.12502	-0	0 -9.61712 0 25	15	-7.97034e-015	-8.46272 -9.62775 4.76248 11.2745	-5.40456	-1.52752	1.00552e-005 -38.0331 0 -0	20.8745	-0	1.14428e-005 -43.2815 0 -6.09661e-015	-77.6873	-6.37629e-015	0 -14.1868 -3.08763 -0	-24.0139	-0	9.10607 -9.62778 4.76249 8.75322	-35.7968	13.6051	-1.01399e-005 -38.3535 0 -0	55.5519	-0	-1.12937e-005 -42.7176 0 7.69477e-016	-73.2746	8.07487e-016	0 -13.9965 -2.83857 -0	-34.5042	-0
0.173524	97.6825	13.3689	-5.34716	5.48765	0.0394964	0 0 0 2.32536	-4.29454	0.551696	-0.214371 12.3768 -1.12219 3.63131	-1.48243	0.597211	-0.00137213 12.3873 0.296195 2.46088	0.863025	0.302862	0.0883157 12.5016 0.82912 -4.38985	-11.404	-4.65076	-1 10.1794 0.943522 2.09308	13.9014	-5.61084	0.667525 10.2797 -1.57149 2.73196	1.40259	-1.8563	0.0883157 12.5016 0.82912 -15	0	-0	20.61 4.45006 1.43784 18.6773	7.56096	167.501	0 -30.3438 0 -0	10.9503	-0	0 -18.964 0 1.06706e-014	-5.99027e-015	-148.618	0 -9.48199 0 1.22245	4.37968	-2.58917e-014	0 -3.17138 0 -0	7.12502	-0	0 -9.48199 0 25	15	-1.36605e-015	0.0883157 12.5016 0.82912 15	0	-0	-20.61 4.45 1.44 -22.1055	-0.836197	-162.554	0 -29.5102 0 -0	34.9315	-0	0 -19.2342 0 1.85585e-016	-1.60311e-015	103.207	0 -9.61712 0 1.22	4.38	-0	0 -3.29215 0 -0	7.12502	-0	0 -9.61712 0 25	15	-7.97034e-015	-8.46272 -9.62775 4.76248 11.3573	-4.59633	-1.68986	1.00552e-005 -38.0331 0 -0	20.4077	-0	1.14428e-005 -43.2815 0 -6.06122e-015	-77.6191	-6.34171e-015	0 -14.1868 -3.08763 -0	-25.0988	-0	9.10607 -9.62778 4.76249 8.7834	-36.4667	13.5831	-1.01399e-005 -38.3535 0 -0	52.7167	-0	-1.12937e-005 -42.7176 0 7.833e-016	-73.5523	8.20734e-016	0 -13.9965 -2.83857 -0	-34.466	-0
0.194218	97.6598	14.4382	-5.46157	5.61628	-0.199204	0 0 0 2.51116	-4.33512	0.641988	-0.214371 12.3768 -1.12219 3.63163	-1.44124	0.705661	-0.00137213 12.3873 0.296195 2.36331	0.928258	0.356734	0.0883157 12.5016 0.82912 -4.47532	-11.3476	-4.62673	-1 10.1794 0.943522 2.12513	13.6065	-5.53413	0.667525 10.2797 -1.57149 2.7705	1.27269	-1.8249	0.0883157 12.5016 0.82912 -15	0	-0	20.61 4.45006 1.43784 19.0615	8.65454	167.917	0 -30.3438 0 -0	10.4177	-0	0 -18.964 0 1.05116e-014	-6.08441e-015	-150.127	0 -9.48199 0 1.22245	4.37968	-2.58917e-014	0 -3.17138 0 -0	7.12502	-0	0 -9.48199 0 25	15	-1.36605e-015	0.0883157 12.5016 0.82912 15	0	-0	-20.61 4.45 1.44 -22.46	-1.51918	-161.655	0 -29.5102 0 -0	36.1216	-0	0 -19.2342 0 1.67094e-016	-1.52216e-015	102.529	0 -9.61712 0 1.22	4.38	-0	0 -3.29215 0 -0	7.12502	-0	0 -9.61712 0 25	15	-7.97034e-015	-8.46272 -9.62775 4.76248 11.4143	-3.76286	-1.86953	1.00552e-005 -38.0331 0 -0	19.8588	-0	1.14428e-005 -43.2815 0 -5.97955e-015	-77.4589	-6.26198e-015	0 -14.1868 -3.08763 -0	-26.3166	-0	9.10607 -9.62778 4.76249 8.79243	-37.0322	13.4606	-1.01399e-005 -38.3535 0 -0	49.6431	-0	-1.12937e-005 -42.7176 0 7.81644e-016	-73.5195	8.19146e-016	0 -13.9965 -2.83857 -0	-34.2386	-0
0.22362	97.6333	15.5066	-5.57189	5.75704	-0.445872	0 0 0 2.69226	-4.39322	0.737039	-0.214371 12.3768 -1.12219 3.62834	-1.40479	0.819865	-0.00137213 12.3873 0.296195 2.26601	0.999466	0.413584	0.0883157 12.5016 0.82912 -4.56184	-11.2743	-4.60789	-1 10.1794 0.943522 2.16355	13.305	-5.46766	0.667525 10.2797 -1.57149 2.8088	1.13959	-1.79818	0.0883157 12.5016 0.82912 -15	0	-0	20.61 4.45006 1.43784 19.4562	9.76903	168.252	0 -30.3438 0 -0	9.9673	-0	0 -18.964 0 1.03964e-014	-6.14914e-015	-151.206	0 -9.48199 0 1.22245	4.37968	-2.58917e-014	0 -3.17138 0 -0	7.12502	-0	0 -9.48199 0 25	15	-1.36605e-015	0.0883157 12.5016 0.82912 15	0	-0	-20.61 4.45 1.44 -22.8061	-2.17331	-160.855	0 -29.5102 0 -0	37.309	-0	0 -19.2342 0 1.49536e-016	-1.44088e-015	101.85	0 -9.61712 0 1.22	4.38	-0	0 -3.29215 0 -0	7.12502	-0	0 -9.61712 0 25	15	-7.97034e-015	-8.46272 -9.62775 4.76248 11.4487	-2.90223	-2.05942	1.00552e-005 -38.0331 0 -0	19.2237	-0	1.14428e-005 -43.2815 0 -5.85532e-015	-77.2072	-6.14076e-015	0 -14.1868 -3.08763 -0	-27.5728	-0	9.10607 -9.62778 4.76249 8.78557	-37.5065	13.2207	-1.01399e-005 -38.3535 0 -0	46.3788	-0	-1.12937e-005 -42.7176 0 7.67928e-016	-73.2429	8.06003e-016	0 -13.9965 -2.83857 -0	-33.885	-0
0.264958	97.6023	16.5722	-5.67985	5.90778	-0.70256	0 0 0 2.87165	-4.46612	0.840451	-0.214371 12.3768 -1.12219 3.62073	-1.37396	0.944573	-0.00137213 12.3873 0.296195 2.1665	1.07409	0.475825	0.0883157 12.5016 0.82912 -4.64526	-11.1867	-4.59645	-1 10.1794 0.943522 2.20555	13.0038	-5.41563	0.667525 10.2797 -1.57149 2.84415	1.00682	-1.77796	0.0883157 12.5016 0.82912 -15	0	-0	20.61 4.45006 1.43784 19.8604	10.8951	168.5	0 -30.3438 0 -0	9.58873	-0	0 -18.964 0 1.03276e-014	-6.18645e-015	-151.845	0 -9.48199 0 1.22245	4.37968	-2.58917e-014	0 -3.17138 0 -0	7.12502	-0	0 -9.48199 0 25	15	-1.36605e-015	0.0883157 12.5016 0.82912 15	0	-0	-20.61 4.45 1.44 -23.1385	-2.79418	-160.157	0 -29.5102 0 -0	38.4827	-0	0 -19.2342 0 1.33086e-016	-1.36012e-015	101.177	0 -9.61712 0 1.22	4.38	-0	0 -3.29215 0 -0	7.12502	-0	0 -9.61712 0 25	15	-7.97034e-015	-8.46272 -9.62775 4.76248 11.4655	-2.01108	-2.25011	1.00552e-005 -38.0331 0 -0	18.4991	-0	1.14428e-005 -43.2815 0 -5.69425e-015	-76.8657	-5.9838e-015	0 -14.1868 -3.08763 -0	-28.7776	-0	9.10607 -9.62778 4.76249 8.76983	-37.9054	12.8495	-1.01399e-005 -38.3535 0 -0	42.9834	-0	-1.12937e-005 -42.7176 0 7.46984e-016	-72.8027	7.85971e-016	0 -13.9965 -2.83857 -0	-33.468	-0
